<svg width="22" height="25" viewBox="0 0 22 25" fill="none" xmlns="http://www.w3.org/2000/svg">
<path d="M19.0261 5.34661C18.8574 5.2594 18.6931 5.1638 18.534 5.06016C18.0711 4.75417 17.6467 4.39361 17.27 3.98626C16.3273 2.90767 15.9752 1.81345 15.8456 1.04734H15.8508C15.7424 0.411438 15.7872 0 15.794 0H11.5005V16.6023C11.5005 16.8252 11.5005 17.0455 11.4911 17.2632C11.4911 17.2903 11.4885 17.3153 11.4869 17.3444C11.4869 17.3564 11.4869 17.3689 11.4843 17.3814V17.3908C11.4391 17.9865 11.2481 18.5619 10.9283 19.0665C10.6084 19.5711 10.1695 19.9893 9.65003 20.2844C9.10868 20.5924 8.49639 20.7539 7.87356 20.7531C5.87314 20.7531 4.25186 19.122 4.25186 17.1075C4.25186 15.093 5.87314 13.4618 7.87356 13.4618C8.25223 13.4615 8.62857 13.5211 8.98861 13.6384L8.99381 9.26672C7.90083 9.12554 6.79045 9.21241 5.73271 9.52184C4.67498 9.83127 3.69285 10.3566 2.84829 11.0646C2.10825 11.7075 1.48611 12.4747 1.00984 13.3316C0.828596 13.6441 0.144776 14.8998 0.061968 16.9377C0.00988726 18.0944 0.357266 19.2928 0.522882 19.7881V19.7985C0.627044 20.0901 1.03067 21.0854 1.68845 21.9244C2.21886 22.5974 2.84552 23.1887 3.54825 23.679V23.6686L3.55867 23.679C5.63721 25.0915 7.94178 24.9988 7.94178 24.9988C8.34072 24.9826 9.67711 24.9988 11.1947 24.2795C12.878 23.4822 13.8363 22.2942 13.8363 22.2942C14.4485 21.5844 14.9353 20.7755 15.2758 19.9021C15.6643 18.8808 15.794 17.6559 15.794 17.1663V8.35844C15.8461 8.38969 16.5398 8.84852 16.5398 8.84852C16.5398 8.84852 17.5392 9.48911 19.0985 9.90628C20.2172 10.2031 21.7244 10.2656 21.7244 10.2656V6.00335C21.1963 6.06064 20.124 5.89398 19.0261 5.34661Z" fill="#FFEFAD"/>
</svg>
