<svg width="26" height="25" viewBox="0 0 26 25" fill="none" xmlns="http://www.w3.org/2000/svg">
<path d="M10.0005 16.2172V8.78282L16.5333 12.5L10.0005 16.2172ZM24.5348 6.44376C24.2473 5.36094 23.3989 4.50782 22.3239 4.21876C20.3739 3.69376 12.5567 3.69376 12.5567 3.69376C12.5567 3.69376 4.73951 3.69376 2.78951 4.21876C1.71451 4.50782 0.866077 5.36094 0.578577 6.44376C0.0567017 8.40626 0.0567017 12.5 0.0567017 12.5C0.0567017 12.5 0.0567017 16.5938 0.578577 18.5563C0.866077 19.6391 1.71451 20.4922 2.78951 20.7813C4.73951 21.3063 12.5567 21.3063 12.5567 21.3063C12.5567 21.3063 20.3739 21.3063 22.3239 20.7813C23.3989 20.4922 24.2473 19.6391 24.5348 18.5563C25.0567 16.5938 25.0567 12.5 25.0567 12.5C25.0567 12.5 25.0567 8.40626 24.5348 6.44376Z" fill="#FFEFAD"/>
</svg>
