<svg width="26" height="25" viewBox="0 0 26 25" fill="none" xmlns="http://www.w3.org/2000/svg">
<path d="M25.7244 17.7375C25.7244 22.2875 23.0119 25 18.4619 25H16.9744C16.2869 25 15.7244 24.4375 15.7244 23.75V16.5375C15.7244 16.2 15.9994 15.9125 16.3369 15.9125L18.5369 15.875C18.7119 15.8625 18.8619 15.7375 18.8994 15.5625L19.3369 13.175C19.3744 12.95 19.1994 12.7375 18.9619 12.7375L16.2994 12.775C15.9494 12.775 15.6744 12.5 15.6619 12.1625L15.6119 9.1C15.6119 8.9 15.7744 8.72501 15.9869 8.72501L18.9869 8.675C19.1994 8.675 19.3619 8.51251 19.3619 8.30001L19.3119 5.29999C19.3119 5.08749 19.1494 4.925 18.9369 4.925L15.5619 4.97501C13.4869 5.01251 11.8369 6.7125 11.8744 8.7875L11.9369 12.225C11.9494 12.575 11.6744 12.85 11.3244 12.8625L9.82443 12.8875C9.61193 12.8875 9.44944 13.05 9.44944 13.2625L9.48694 15.6375C9.48694 15.85 9.64943 16.0125 9.86193 16.0125L11.3619 15.9875C11.7119 15.9875 11.9869 16.2625 11.9994 16.6L12.1119 23.725C12.1244 24.425 11.5619 25 10.8619 25H7.98693C3.43693 25 0.724426 22.2875 0.724426 17.725V7.2625C0.724426 2.7125 3.43693 0 7.98693 0H18.4619C23.0119 0 25.7244 2.7125 25.7244 7.2625V17.7375Z" fill="#FFEFAD"/>
</svg>
