<svg width="26" height="25" viewBox="0 0 26 25" fill="none" xmlns="http://www.w3.org/2000/svg">
<path d="M17.8511 8.66015C17.7426 8.37923 17.5765 8.12414 17.3635 7.91131C17.1504 7.69849 16.8952 7.53265 16.6141 7.42448C16.2271 7.28115 15.8184 7.2054 15.4058 7.20052C14.7196 7.16927 14.5139 7.16146 12.7756 7.16146C11.0373 7.16146 10.8316 7.16927 10.1454 7.20052C9.7323 7.20525 9.32312 7.281 8.93573 7.42448C8.65481 7.53294 8.39972 7.69905 8.18689 7.9121C7.97407 8.12515 7.80823 8.38042 7.70006 8.66146C7.55673 9.04843 7.48098 9.45716 7.4761 9.86979C7.44485 10.556 7.43704 10.7617 7.43704 12.5C7.43704 14.2383 7.44485 14.444 7.4761 15.1302C7.48083 15.5433 7.55658 15.9525 7.70006 16.3398C7.80852 16.6208 7.97463 16.8759 8.18768 17.0887C8.40073 17.3015 8.656 17.4673 8.93704 17.5755C9.32401 17.7188 9.73273 17.7946 10.1454 17.7995C10.8316 17.8307 11.0373 17.8372 12.7756 17.8372C14.5139 17.8372 14.7196 17.8307 15.4058 17.7982C15.8188 17.7939 16.228 17.7185 16.6154 17.5755C16.8963 17.4671 17.1514 17.3009 17.3643 17.0879C17.5771 16.8748 17.7429 16.6196 17.8511 16.3385C17.9944 15.9516 18.0702 15.5428 18.0751 15.1302C18.1063 14.444 18.1128 14.2383 18.1128 12.5C18.1128 10.7617 18.1063 10.556 18.0738 9.86979C18.0694 9.45679 17.9941 9.04762 17.8511 8.66015ZM12.7756 15.8437C12.1142 15.8437 11.4678 15.6476 10.9179 15.2802C10.368 14.9128 9.93944 14.3906 9.68635 13.7796C9.43327 13.1686 9.36706 12.4963 9.49608 11.8477C9.6251 11.199 9.94356 10.6032 10.4112 10.1356C10.8788 9.66798 11.4746 9.34952 12.1232 9.2205C12.7719 9.09148 13.4442 9.1577 14.0552 9.41078C14.6662 9.66386 15.1884 10.0924 15.5558 10.6423C15.9232 11.1922 16.1193 11.8387 16.1193 12.5C16.1193 13.3868 15.767 14.2373 15.14 14.8644C14.5129 15.4915 13.6624 15.8437 12.7756 15.8437ZM16.2508 9.80599C16.0963 9.80599 15.9453 9.76017 15.8168 9.67432C15.6883 9.58848 15.5882 9.46646 15.5291 9.32371C15.4699 9.18095 15.4545 9.02387 15.4846 8.87232C15.5147 8.72078 15.5891 8.58157 15.6984 8.47231C15.8077 8.36305 15.9469 8.28864 16.0984 8.2585C16.25 8.22835 16.4071 8.24383 16.5498 8.30296C16.6926 8.36209 16.8146 8.46222 16.9004 8.5907C16.9863 8.71917 17.0321 8.87022 17.0321 9.02474C17.0321 9.23194 16.9498 9.43065 16.8033 9.57716C16.6567 9.72368 16.458 9.80599 16.2508 9.80599ZM14.9461 12.5C14.9461 12.9293 14.8188 13.349 14.5803 13.7059C14.3418 14.0629 14.0028 14.3411 13.6062 14.5053C13.2096 14.6696 12.7732 14.7126 12.3521 14.6289C11.9311 14.5451 11.5443 14.3384 11.2408 14.0348C10.9372 13.7313 10.7305 13.3445 10.6467 12.9235C10.563 12.5024 10.6059 12.066 10.7702 11.6694C10.9345 11.2727 11.2127 10.9337 11.5697 10.6952C11.9266 10.4567 12.3463 10.3294 12.7756 10.3294C13.3512 10.3294 13.9033 10.5581 14.3104 10.9652C14.7175 11.3722 14.9461 11.9243 14.9461 12.5ZM12.7756 0C10.3033 0 7.88656 0.733112 5.83095 2.10663C3.77534 3.48015 2.17318 5.43238 1.22708 7.71645C0.28099 10.0005 0.0334482 12.5139 0.515763 14.9386C0.998078 17.3634 2.18859 19.5907 3.93674 21.3388C5.6849 23.087 7.91219 24.2775 10.3369 24.7598C12.7617 25.2421 15.275 24.9946 17.5591 24.0485C19.8432 23.1024 21.7954 21.5002 23.1689 19.4446C24.5425 17.389 25.2756 14.9723 25.2756 12.5C25.2756 9.18479 23.9586 6.00537 21.6144 3.66116C19.2702 1.31696 16.0908 0 12.7756 0ZM19.2469 15.1836C19.2359 15.7239 19.1333 16.2584 18.9435 16.7643C18.7763 17.1967 18.5206 17.5894 18.1928 17.9172C17.865 18.245 17.4723 18.5007 17.0399 18.668C16.5343 18.8576 16.0003 18.9602 15.4605 18.9713C14.7652 19.0026 14.5438 19.0104 12.7756 19.0104C11.0073 19.0104 10.786 19.0026 10.0907 18.9713C9.55085 18.9602 9.01681 18.8576 8.51125 18.668C8.07886 18.5007 7.68617 18.245 7.35836 17.9172C7.03054 17.5894 6.77483 17.1967 6.60761 16.7643C6.41797 16.2588 6.31539 15.7247 6.30422 15.1849C6.27297 14.4896 6.26516 14.2682 6.26516 12.5C6.26516 10.7318 6.27297 10.5104 6.30422 9.8151C6.31498 9.27534 6.41712 8.74131 6.60631 8.23567C6.77352 7.80291 7.02936 7.40989 7.35742 7.08184C7.68547 6.75378 8.07849 6.49794 8.51125 6.33073C9.01689 6.14154 9.55092 6.0394 10.0907 6.02864C10.786 5.99739 11.0073 5.98958 12.7756 5.98958C14.5438 5.98958 14.7652 5.99739 15.4605 6.02864C16.0002 6.0394 16.5343 6.14154 17.0399 6.33073C17.4724 6.49809 17.8652 6.754 18.193 7.08205C18.5208 7.4101 18.7765 7.80304 18.9435 8.23567C19.1332 8.74123 19.2358 9.27527 19.2469 9.8151C19.2782 10.5104 19.286 10.7318 19.286 12.5C19.286 14.2682 19.2782 14.4883 19.2469 15.1836Z" fill="#FFEFAD"/>
</svg>
