<svg width="32" height="25" viewBox="0 0 32 25" fill="none" xmlns="http://www.w3.org/2000/svg">
<path d="M27.8928 6.23045C27.9123 6.50387 27.9123 6.77735 27.9123 7.05078C27.9123 15.3906 21.5647 25 9.96308 25C6.38885 25 3.06855 23.9648 0.275574 22.168C0.783405 22.2266 1.27164 22.2461 1.79901 22.2461C4.74818 22.2461 7.46306 21.25 9.63104 19.5508C6.8576 19.4922 4.53337 17.6758 3.73258 15.1758C4.12323 15.2343 4.51383 15.2734 4.92403 15.2734C5.49042 15.2734 6.05686 15.1953 6.58417 15.0586C3.69356 14.4726 1.52552 11.9336 1.52552 8.86718V8.78908C2.36533 9.25783 3.34198 9.5508 4.37706 9.58982C2.67784 8.45698 1.5646 6.52341 1.5646 4.33589C1.5646 3.16404 1.87704 2.08982 2.42395 1.15231C5.52943 4.98044 10.1974 7.48039 15.4318 7.75388C15.3341 7.28513 15.2755 6.79689 15.2755 6.3086C15.2755 2.832 18.088 0 21.5841 0C23.4005 0 25.0411 0.761717 26.1935 1.99219C27.6192 1.71876 28.9864 1.19139 30.1974 0.468753C29.7286 1.93363 28.7325 3.1641 27.4239 3.9453C28.6935 3.80864 29.924 3.457 31.0567 2.96877C30.1975 4.21872 29.1232 5.33196 27.8928 6.23045Z" fill="#FFEFAD"/>
</svg>
