<svg width="16" height="17" viewBox="0 0 16 17" fill="none" xmlns="http://www.w3.org/2000/svg">
<g clip-path="url(#clip0_15_146)">
<path fill-rule="evenodd" clip-rule="evenodd" d="M16 8.5C16 6.37827 15.1571 4.34344 13.6569 2.84315C12.1566 1.34285 10.1217 0.5 8 0.5C5.87827 0.5 3.84344 1.34285 2.34315 2.84315C0.842855 4.34344 0 6.37827 0 8.5C0 10.6217 0.842855 12.6566 2.34315 14.1569C3.84344 15.6571 5.87827 16.5 8 16.5C10.1217 16.5 12.1566 15.6571 13.6569 14.1569C15.1571 12.6566 16 10.6217 16 8.5ZM8.5 5C8.5 4.86739 8.44732 4.74021 8.35355 4.64645C8.25979 4.55268 8.13261 4.5 8 4.5C7.86739 4.5 7.74021 4.55268 7.64645 4.64645C7.55268 4.74021 7.5 4.86739 7.5 5V10.793L5.354 8.646C5.26011 8.55211 5.13278 8.49937 5 8.49937C4.86722 8.49937 4.73989 8.55211 4.646 8.646C4.55211 8.73989 4.49937 8.86722 4.49937 9C4.49937 9.13278 4.55211 9.26011 4.646 9.354L7.646 12.354C7.69245 12.4006 7.74762 12.4375 7.80837 12.4627C7.86911 12.4879 7.93423 12.5009 8 12.5009C8.06577 12.5009 8.13089 12.4879 8.19163 12.4627C8.25238 12.4375 8.30755 12.4006 8.354 12.354L11.354 9.354C11.4479 9.26011 11.5006 9.13278 11.5006 9C11.5006 8.86722 11.4479 8.73989 11.354 8.646C11.2601 8.55211 11.1328 8.49937 11 8.49937C10.8672 8.49937 10.7399 8.55211 10.646 8.646L8.5 10.793V5Z" fill="#E162FF"/>
</g>
<defs>
<clipPath id="clip0_15_146">
<rect width="16" height="16" fill="white" transform="matrix(1 0 0 -1 0 16.5)"/>
</clipPath>
</defs>
</svg>
