<svg width="40" height="40" viewBox="0 0 40 40" fill="none" xmlns="http://www.w3.org/2000/svg">
<g clip-path="url(#clip0_1_4068)">
<circle cx="20" cy="20" r="20" fill="white"/>
<path d="M25.6457 27.2876L25.251 28.2064C24.9796 28.0898 24.7339 27.921 24.5277 27.7094L16 19.1817V23.6875C16 24.2842 15.7629 24.8565 15.341 25.2785C14.919 25.7004 14.3467 25.9375 13.75 25.9375C13.1533 25.9375 12.581 25.7004 12.159 25.2785C11.7371 24.8565 11.5 24.2842 11.5 23.6875V13.75C11.5 13.1533 11.7371 12.581 12.159 12.159L12.8661 12.8661L12.159 12.159C12.581 11.7371 13.1533 11.5 13.75 11.5H23.6875C24.2842 11.5 24.8565 11.7371 25.2785 12.159C25.7004 12.581 25.9375 13.1533 25.9375 13.75C25.9375 14.3467 25.7004 14.919 25.2785 15.341C24.8565 15.7629 24.2842 16 23.6875 16H19.1817L27.7094 24.5277C27.921 24.7339 28.0898 24.9796 28.2064 25.251L27.2876 25.6457L28.2064 25.2511C28.3244 25.5256 28.3864 25.8208 28.389 26.1196C28.3916 26.4183 28.3347 26.7146 28.2216 26.9911L27.296 26.6124L28.2216 26.9911C28.1084 27.2676 27.9414 27.5188 27.7301 27.7301L25.6457 27.2876ZM25.6457 27.2876L25.2511 28.2064C25.5256 28.3244 25.8208 28.3864 26.1196 28.389C26.4183 28.3916 26.7146 28.3347 26.9911 28.2216L26.6124 27.296L26.9911 28.2216C27.2676 28.1084 27.5188 27.9414 27.7301 27.7301L25.6457 27.2876ZM39 20C39 25.0391 36.9982 29.8718 33.435 33.435C29.8718 36.9982 25.0391 39 20 39C14.9609 39 10.1282 36.9982 6.56497 33.435C3.00178 29.8718 1 25.0391 1 20C1 14.9609 3.00178 10.1282 6.56497 6.56497C10.1282 3.00178 14.9609 1 20 1C25.0391 1 29.8718 3.00178 33.435 6.56497C36.9982 10.1282 39 14.9609 39 20Z" fill="#FBCB00" stroke="black" stroke-width="2"/>
</g>
<defs>
<clipPath id="clip0_1_4068">
<rect width="40" height="40" fill="white"/>
</clipPath>
</defs>
</svg>
