<svg width="40" height="40" viewBox="0 0 40 40" fill="none" xmlns="http://www.w3.org/2000/svg">
<g clip-path="url(#clip0_1_4251)">
<path d="M6 38.7507V38.75V5C6 3.93913 6.42143 2.92172 7.17157 2.17157C7.92172 1.42143 8.93913 1 10 1H30C31.0609 1 32.0783 1.42143 32.8284 2.17157C33.5786 2.92172 34 3.93913 34 5V38.75V38.7507C34 38.7941 33.9888 38.8368 33.9673 38.8745L34.8364 39.3691L33.9673 38.8746C33.9458 38.9123 33.9149 38.9438 33.8776 38.9659L34.3878 39.826L33.8776 38.9659C33.8402 38.9881 33.7978 39.0001 33.7543 39.0009C33.7109 39.0016 33.6681 38.9911 33.63 38.9702L33.629 38.9697L20.479 31.7947L20 31.5333L19.521 31.7947L6.37103 38.9697L6.36999 38.9702C6.33191 38.9911 6.28906 39.0016 6.24566 39.0009C6.20225 39.0001 6.15978 38.9881 6.12245 38.9659L5.6132 39.8243L6.12244 38.9659C6.08511 38.9438 6.05418 38.9123 6.03271 38.8745C6.01124 38.8368 5.99997 38.7941 6 38.7507Z" fill="white" fill-opacity="0.47" stroke="black" stroke-width="2"/>
</g>
<defs>
<clipPath id="clip0_1_4251">
<rect width="40" height="40" fill="white"/>
</clipPath>
</defs>
</svg>
