<svg width="17" height="16" viewBox="0 0 17 16" fill="none" xmlns="http://www.w3.org/2000/svg">
<path d="M12.8701 8.753L7.3881 13.549C6.7421 14.115 5.7301 13.655 5.7301 12.796V3.204C5.72994 3.01175 5.78519 2.82354 5.88924 2.66189C5.9933 2.50024 6.14174 2.372 6.3168 2.29255C6.49185 2.21309 6.6861 2.18578 6.87628 2.21388C7.06646 2.24198 7.24451 2.32431 7.3891 2.451L12.8691 7.247C12.9765 7.34086 13.0626 7.45661 13.1216 7.58649C13.1806 7.71636 13.2111 7.85736 13.2111 8C13.2111 8.14264 13.1806 8.28363 13.1216 8.41351C13.0626 8.54338 12.9765 8.65914 12.8691 8.753H12.8701Z" fill="#BF00ED"/>
</svg>
