<svg width="267" height="24" viewBox="0 0 267 24" fill="none" xmlns="http://www.w3.org/2000/svg">
<g clip-path="url(#clip0_1_4249)">
<path d="M4.299 22.275C4.182 22.941 4.839 23.4615 5.418 23.1645L12.003 19.7805L18.5865 23.1645C19.1655 23.4615 19.8225 22.941 19.7055 22.2765L18.4605 15.1815L23.7435 10.1475C24.2385 9.67651 23.9835 8.81551 23.3205 8.72251L15.9735 7.67851L12.6975 1.18801C12.6351 1.05644 12.5366 0.945281 12.4136 0.867445C12.2905 0.789609 12.1479 0.748291 12.0023 0.748291C11.8566 0.748291 11.714 0.789609 11.5909 0.867445C11.4679 0.945281 11.3694 1.05644 11.307 1.18801L8.031 7.68001L0.684002 8.72401C0.0225019 8.81701 -0.233998 9.67801 0.259502 10.149L5.544 15.183L4.299 22.278V22.275ZM11.6565 18.1245L6.1275 20.9655L7.1685 15.03C7.19356 14.8934 7.18434 14.7527 7.14167 14.6205C7.099 14.4883 7.02421 14.3687 6.924 14.2725L2.565 10.1175L8.643 9.25351C8.76865 9.2339 8.88776 9.18443 8.99034 9.10926C9.09291 9.03409 9.17596 8.93541 9.2325 8.82151L12 3.33451L14.7705 8.82151C14.827 8.93541 14.9101 9.03409 15.0127 9.10926C15.1152 9.18443 15.2344 9.2339 15.36 9.25351L21.438 10.116L17.079 14.271C16.9786 14.3674 16.9036 14.4872 16.8609 14.6196C16.8183 14.7521 16.8092 14.8931 16.8345 15.03L17.8755 20.9655L12.3465 18.1245C12.2397 18.069 12.1211 18.0401 12.0008 18.0401C11.8804 18.0401 11.7633 18.069 11.6565 18.1245Z" fill="#D9D9D9"/>
</g>
<g clip-path="url(#clip1_1_4249)">
<path d="M31.299 22.275C31.182 22.941 31.839 23.4615 32.418 23.1645L39.003 19.7805L45.5865 23.1645C46.1655 23.4615 46.8225 22.941 46.7055 22.2765L45.4605 15.1815L50.7435 10.1475C51.2385 9.67651 50.9835 8.81551 50.3205 8.72251L42.9735 7.67851L39.6975 1.18801C39.6351 1.05644 39.5366 0.945281 39.4136 0.867445C39.2905 0.789609 39.1479 0.748291 39.0023 0.748291C38.8566 0.748291 38.714 0.789609 38.5909 0.867445C38.4679 0.945281 38.3694 1.05644 38.307 1.18801L35.031 7.68001L27.684 8.72401C27.0225 8.81701 26.766 9.67801 27.2595 10.149L32.544 15.183L31.299 22.278V22.275ZM38.6565 18.1245L33.1275 20.9655L34.1685 15.03C34.1936 14.8934 34.1843 14.7527 34.1417 14.6205C34.099 14.4883 34.0242 14.3687 33.924 14.2725L29.565 10.1175L35.643 9.25351C35.7687 9.2339 35.8878 9.18443 35.9903 9.10926C36.0929 9.03409 36.176 8.93541 36.2325 8.82151L39 3.33451L41.7705 8.82151C41.827 8.93541 41.9101 9.03409 42.0127 9.10926C42.1152 9.18443 42.2344 9.2339 42.36 9.25351L48.438 10.116L44.079 14.271C43.9786 14.3674 43.9036 14.4872 43.8609 14.6196C43.8183 14.7521 43.8092 14.8931 43.8345 15.03L44.8755 20.9655L39.3465 18.1245C39.2397 18.069 39.1211 18.0401 39.0008 18.0401C38.8804 18.0401 38.7633 18.069 38.6565 18.1245Z" fill="#D9D9D9"/>
</g>
<g clip-path="url(#clip2_1_4249)">
<path d="M220.299 22.275C220.182 22.941 220.839 23.4615 221.418 23.1645L228.003 19.7805L234.587 23.1645C235.166 23.4615 235.823 22.941 235.706 22.2765L234.461 15.1815L239.744 10.1475C240.239 9.67651 239.984 8.81551 239.321 8.72251L231.974 7.67851L228.698 1.18801C228.635 1.05644 228.537 0.945281 228.414 0.867445C228.29 0.789609 228.148 0.748291 228.002 0.748291C227.857 0.748291 227.714 0.789609 227.591 0.867445C227.468 0.945281 227.369 1.05644 227.307 1.18801L224.031 7.68001L216.684 8.72401C216.023 8.81701 215.766 9.67801 216.26 10.149L221.544 15.183L220.299 22.278V22.275ZM227.657 18.1245L222.128 20.9655L223.169 15.03C223.194 14.8934 223.184 14.7527 223.142 14.6205C223.099 14.4883 223.024 14.3687 222.924 14.2725L218.565 10.1175L224.643 9.25351C224.769 9.2339 224.888 9.18443 224.99 9.10926C225.093 9.03409 225.176 8.93541 225.233 8.82151L228 3.33451L230.771 8.82151C230.827 8.93541 230.91 9.03409 231.013 9.10926C231.115 9.18443 231.234 9.2339 231.36 9.25351L237.438 10.116L233.079 14.271C232.979 14.3674 232.904 14.4872 232.861 14.6196C232.818 14.7521 232.809 14.8931 232.835 15.03L233.876 20.9655L228.347 18.1245C228.24 18.069 228.121 18.0401 228.001 18.0401C227.88 18.0401 227.763 18.069 227.657 18.1245Z" fill="#D9D9D9"/>
</g>
<g clip-path="url(#clip3_1_4249)">
<path d="M247.299 22.275C247.182 22.941 247.839 23.4615 248.418 23.1645L255.003 19.7805L261.586 23.1645C262.165 23.4615 262.822 22.941 262.705 22.2765L261.46 15.1815L266.743 10.1475C267.238 9.67651 266.983 8.81551 266.32 8.72251L258.973 7.67851L255.697 1.18801C255.635 1.05644 255.537 0.945281 255.414 0.867445C255.29 0.789609 255.148 0.748291 255.002 0.748291C254.857 0.748291 254.714 0.789609 254.591 0.867445C254.468 0.945281 254.369 1.05644 254.307 1.18801L251.031 7.68001L243.684 8.72401C243.022 8.81701 242.766 9.67801 243.259 10.149L248.544 15.183L247.299 22.278V22.275ZM254.656 18.1245L249.127 20.9655L250.168 15.03C250.194 14.8934 250.184 14.7527 250.142 14.6205C250.099 14.4883 250.024 14.3687 249.924 14.2725L245.565 10.1175L251.643 9.25351C251.769 9.2339 251.888 9.18443 251.99 9.10926C252.093 9.03409 252.176 8.93541 252.232 8.82151L255 3.33451L257.77 8.82151C257.827 8.93541 257.91 9.03409 258.013 9.10926C258.115 9.18443 258.234 9.2339 258.36 9.25351L264.438 10.116L260.079 14.271C259.979 14.3674 259.904 14.4872 259.861 14.6196C259.818 14.7521 259.809 14.8931 259.834 15.03L260.875 20.9655L255.346 18.1245C255.24 18.069 255.121 18.0401 255.001 18.0401C254.88 18.0401 254.763 18.069 254.656 18.1245Z" fill="#D9D9D9"/>
</g>
<g clip-path="url(#clip4_1_4249)">
<path d="M58.299 22.275C58.182 22.941 58.839 23.4615 59.418 23.1645L66.003 19.7805L72.5865 23.1645C73.1655 23.4615 73.8225 22.941 73.7055 22.2765L72.4605 15.1815L77.7435 10.1475C78.2385 9.67651 77.9835 8.81551 77.3205 8.72251L69.9735 7.67851L66.6975 1.18801C66.6351 1.05644 66.5366 0.945281 66.4136 0.867445C66.2905 0.789609 66.1479 0.748291 66.0022 0.748291C65.8566 0.748291 65.714 0.789609 65.5909 0.867445C65.4679 0.945281 65.3694 1.05644 65.307 1.18801L62.031 7.68001L54.684 8.72401C54.0225 8.81701 53.766 9.67801 54.2595 10.149L59.544 15.183L58.299 22.278V22.275ZM65.6565 18.1245L60.1275 20.9655L61.1685 15.03C61.1936 14.8934 61.1843 14.7527 61.1417 14.6205C61.099 14.4883 61.0242 14.3687 60.924 14.2725L56.565 10.1175L62.643 9.25351C62.7686 9.2339 62.8878 9.18443 62.9903 9.10926C63.0929 9.03409 63.176 8.93541 63.2325 8.82151L66 3.33451L68.7705 8.82151C68.827 8.93541 68.9101 9.03409 69.0127 9.10926C69.1152 9.18443 69.2343 9.2339 69.36 9.25351L75.438 10.116L71.079 14.271C70.9785 14.3674 70.9036 14.4872 70.8609 14.6196C70.8183 14.7521 70.8092 14.8931 70.8345 15.03L71.8755 20.9655L66.3465 18.1245C66.2397 18.069 66.1211 18.0401 66.0007 18.0401C65.8804 18.0401 65.7633 18.069 65.6565 18.1245Z" fill="#D9D9D9"/>
</g>
<g clip-path="url(#clip5_1_4249)">
<path d="M85.299 22.275C85.182 22.941 85.839 23.4615 86.418 23.1645L93.003 19.7805L99.5865 23.1645C100.166 23.4615 100.823 22.941 100.705 22.2765L99.4605 15.1815L104.744 10.1475C105.239 9.67651 104.983 8.81551 104.32 8.72251L96.9735 7.67851L93.6975 1.18801C93.6351 1.05644 93.5366 0.945281 93.4136 0.867445C93.2905 0.789609 93.1479 0.748291 93.0023 0.748291C92.8566 0.748291 92.714 0.789609 92.5909 0.867445C92.4679 0.945281 92.3694 1.05644 92.307 1.18801L89.031 7.68001L81.684 8.72401C81.0225 8.81701 80.766 9.67801 81.2595 10.149L86.544 15.183L85.299 22.278V22.275ZM92.6565 18.1245L87.1275 20.9655L88.1685 15.03C88.1936 14.8934 88.1843 14.7527 88.1417 14.6205C88.099 14.4883 88.0242 14.3687 87.924 14.2725L83.565 10.1175L89.643 9.25351C89.7686 9.2339 89.8878 9.18443 89.9903 9.10926C90.0929 9.03409 90.176 8.93541 90.2325 8.82151L93 3.33451L95.7705 8.82151C95.827 8.93541 95.9101 9.03409 96.0127 9.10926C96.1152 9.18443 96.2344 9.2339 96.36 9.25351L102.438 10.116L98.079 14.271C97.9786 14.3674 97.9036 14.4872 97.8609 14.6196C97.8183 14.7521 97.8092 14.8931 97.8345 15.03L98.8755 20.9655L93.3465 18.1245C93.2397 18.069 93.1211 18.0401 93.0007 18.0401C92.8804 18.0401 92.7633 18.069 92.6565 18.1245Z" fill="#D9D9D9"/>
</g>
<g clip-path="url(#clip6_1_4249)">
<path d="M112.299 22.275C112.182 22.941 112.839 23.4615 113.418 23.1645L120.003 19.7805L126.587 23.1645C127.166 23.4615 127.823 22.941 127.705 22.2765L126.461 15.1815L131.744 10.1475C132.239 9.67651 131.983 8.81551 131.32 8.72251L123.974 7.67851L120.698 1.18801C120.635 1.05644 120.537 0.945281 120.414 0.867445C120.29 0.789609 120.148 0.748291 120.002 0.748291C119.857 0.748291 119.714 0.789609 119.591 0.867445C119.468 0.945281 119.369 1.05644 119.307 1.18801L116.031 7.68001L108.684 8.72401C108.023 8.81701 107.766 9.67801 108.26 10.149L113.544 15.183L112.299 22.278V22.275ZM119.656 18.1245L114.128 20.9655L115.168 15.03C115.194 14.8934 115.184 14.7527 115.142 14.6205C115.099 14.4883 115.024 14.3687 114.924 14.2725L110.565 10.1175L116.643 9.25351C116.769 9.2339 116.888 9.18443 116.99 9.10926C117.093 9.03409 117.176 8.93541 117.233 8.82151L120 3.33451L122.771 8.82151C122.827 8.93541 122.91 9.03409 123.013 9.10926C123.115 9.18443 123.234 9.2339 123.36 9.25351L129.438 10.116L125.079 14.271C124.979 14.3674 124.904 14.4872 124.861 14.6196C124.818 14.7521 124.809 14.8931 124.834 15.03L125.875 20.9655L120.347 18.1245C120.24 18.069 120.121 18.0401 120.001 18.0401C119.88 18.0401 119.763 18.069 119.656 18.1245Z" fill="#D9D9D9"/>
</g>
<g clip-path="url(#clip7_1_4249)">
<path d="M139.299 22.275C139.182 22.941 139.839 23.4615 140.418 23.1645L147.003 19.7805L153.586 23.1645C154.165 23.4615 154.822 22.941 154.705 22.2765L153.46 15.1815L158.743 10.1475C159.238 9.67651 158.983 8.81551 158.32 8.72251L150.973 7.67851L147.697 1.18801C147.635 1.05644 147.537 0.945281 147.414 0.867445C147.29 0.789609 147.148 0.748291 147.002 0.748291C146.857 0.748291 146.714 0.789609 146.591 0.867445C146.468 0.945281 146.369 1.05644 146.307 1.18801L143.031 7.68001L135.684 8.72401C135.022 8.81701 134.766 9.67801 135.259 10.149L140.544 15.183L139.299 22.278V22.275ZM146.656 18.1245L141.127 20.9655L142.168 15.03C142.194 14.8934 142.184 14.7527 142.142 14.6205C142.099 14.4883 142.024 14.3687 141.924 14.2725L137.565 10.1175L143.643 9.25351C143.769 9.2339 143.888 9.18443 143.99 9.10926C144.093 9.03409 144.176 8.93541 144.232 8.82151L147 3.33451L149.77 8.82151C149.827 8.93541 149.91 9.03409 150.013 9.10926C150.115 9.18443 150.234 9.2339 150.36 9.25351L156.438 10.116L152.079 14.271C151.979 14.3674 151.904 14.4872 151.861 14.6196C151.818 14.7521 151.809 14.8931 151.834 15.03L152.875 20.9655L147.346 18.1245C147.24 18.069 147.121 18.0401 147.001 18.0401C146.88 18.0401 146.763 18.069 146.656 18.1245Z" fill="#D9D9D9"/>
</g>
<g clip-path="url(#clip8_1_4249)">
<path d="M166.299 22.275C166.182 22.941 166.839 23.4615 167.418 23.1645L174.003 19.7805L180.587 23.1645C181.166 23.4615 181.823 22.941 181.706 22.2765L180.461 15.1815L185.744 10.1475C186.239 9.67651 185.984 8.81551 185.321 8.72251L177.974 7.67851L174.698 1.18801C174.635 1.05644 174.537 0.945281 174.414 0.867445C174.29 0.789609 174.148 0.748291 174.002 0.748291C173.857 0.748291 173.714 0.789609 173.591 0.867445C173.468 0.945281 173.369 1.05644 173.307 1.18801L170.031 7.68001L162.684 8.72401C162.023 8.81701 161.766 9.67801 162.26 10.149L167.544 15.183L166.299 22.278V22.275ZM173.657 18.1245L168.128 20.9655L169.169 15.03C169.194 14.8934 169.184 14.7527 169.142 14.6205C169.099 14.4883 169.024 14.3687 168.924 14.2725L164.565 10.1175L170.643 9.25351C170.769 9.2339 170.888 9.18443 170.99 9.10926C171.093 9.03409 171.176 8.93541 171.233 8.82151L174 3.33451L176.771 8.82151C176.827 8.93541 176.91 9.03409 177.013 9.10926C177.115 9.18443 177.234 9.2339 177.36 9.25351L183.438 10.116L179.079 14.271C178.979 14.3674 178.904 14.4872 178.861 14.6196C178.818 14.7521 178.809 14.8931 178.835 15.03L179.876 20.9655L174.347 18.1245C174.24 18.069 174.121 18.0401 174.001 18.0401C173.88 18.0401 173.763 18.069 173.657 18.1245Z" fill="#D9D9D9"/>
</g>
<g clip-path="url(#clip9_1_4249)">
<path d="M193.299 22.275C193.182 22.941 193.839 23.4615 194.418 23.1645L201.003 19.7805L207.587 23.1645C208.166 23.4615 208.823 22.941 208.706 22.2765L207.461 15.1815L212.744 10.1475C213.239 9.67651 212.984 8.81551 212.321 8.72251L204.974 7.67851L201.698 1.18801C201.635 1.05644 201.537 0.945281 201.414 0.867445C201.29 0.789609 201.148 0.748291 201.002 0.748291C200.857 0.748291 200.714 0.789609 200.591 0.867445C200.468 0.945281 200.369 1.05644 200.307 1.18801L197.031 7.68001L189.684 8.72401C189.023 8.81701 188.766 9.67801 189.26 10.149L194.544 15.183L193.299 22.278V22.275ZM200.657 18.1245L195.128 20.9655L196.169 15.03C196.194 14.8934 196.184 14.7527 196.142 14.6205C196.099 14.4883 196.024 14.3687 195.924 14.2725L191.565 10.1175L197.643 9.25351C197.769 9.2339 197.888 9.18443 197.99 9.10926C198.093 9.03409 198.176 8.93541 198.233 8.82151L201 3.33451L203.771 8.82151C203.827 8.93541 203.91 9.03409 204.013 9.10926C204.115 9.18443 204.234 9.2339 204.36 9.25351L210.438 10.116L206.079 14.271C205.979 14.3674 205.904 14.4872 205.861 14.6196C205.818 14.7521 205.809 14.8931 205.835 15.03L206.876 20.9655L201.347 18.1245C201.24 18.069 201.121 18.0401 201.001 18.0401C200.88 18.0401 200.763 18.069 200.657 18.1245Z" fill="#D9D9D9"/>
</g>
<defs>
<clipPath id="clip0_1_4249">
<rect width="24" height="24" fill="white"/>
</clipPath>
<clipPath id="clip1_1_4249">
<rect width="24" height="24" fill="white" transform="translate(27)"/>
</clipPath>
<clipPath id="clip2_1_4249">
<rect width="24" height="24" fill="white" transform="translate(216)"/>
</clipPath>
<clipPath id="clip3_1_4249">
<rect width="24" height="24" fill="white" transform="translate(243)"/>
</clipPath>
<clipPath id="clip4_1_4249">
<rect width="24" height="24" fill="white" transform="translate(54)"/>
</clipPath>
<clipPath id="clip5_1_4249">
<rect width="24" height="24" fill="white" transform="translate(81)"/>
</clipPath>
<clipPath id="clip6_1_4249">
<rect width="24" height="24" fill="white" transform="translate(108)"/>
</clipPath>
<clipPath id="clip7_1_4249">
<rect width="24" height="24" fill="white" transform="translate(135)"/>
</clipPath>
<clipPath id="clip8_1_4249">
<rect width="24" height="24" fill="white" transform="translate(162)"/>
</clipPath>
<clipPath id="clip9_1_4249">
<rect width="24" height="24" fill="white" transform="translate(189)"/>
</clipPath>
</defs>
</svg>
