<svg width="9" height="9" viewBox="0 0 9 9" fill="none" xmlns="http://www.w3.org/2000/svg">
<path d="M4.11667 2.975C4.65 3 4.7875 3.45417 4.79583 3.66667H5.54167C5.50833 2.84167 4.92083 2.3375 4.10417 2.3375C3.18333 2.3375 2.5 2.91667 2.5 4.225C2.5 5.03333 2.8875 5.99167 4.1 5.99167C5.025 5.99167 5.52083 5.30417 5.53333 4.7625H4.7875C4.775 5.00833 4.6 5.3375 4.10833 5.3625C3.5625 5.34583 3.33333 4.92083 3.33333 4.225C3.33333 3.02083 3.86667 2.98333 4.11667 2.975ZM4.16667 0C1.86667 0 0 1.86667 0 4.16667C0 6.46667 1.86667 8.33333 4.16667 8.33333C6.46667 8.33333 8.33333 6.46667 8.33333 4.16667C8.33333 1.86667 6.46667 0 4.16667 0ZM4.16667 7.5C2.32917 7.5 0.833333 6.00417 0.833333 4.16667C0.833333 2.32917 2.32917 0.833333 4.16667 0.833333C6.00417 0.833333 7.5 2.32917 7.5 4.16667C7.5 6.00417 6.00417 7.5 4.16667 7.5Z" fill="black"/>
</svg>
