<svg width="10" height="10" viewBox="0 0 10 10" fill="none" xmlns="http://www.w3.org/2000/svg">
<g clip-path="url(#clip0_1_3961)">
<path fill-rule="evenodd" clip-rule="evenodd" d="M5 10C6.32608 10 7.59785 9.47322 8.53553 8.53553C9.47322 7.59785 10 6.32608 10 5C10 3.67392 9.47322 2.40215 8.53553 1.46447C7.59785 0.526784 6.32608 0 5 0C3.67392 0 2.40215 0.526784 1.46447 1.46447C0.526784 2.40215 0 3.67392 0 5C0 6.32608 0.526784 7.59785 1.46447 8.53553C2.40215 9.47322 3.67392 10 5 10ZM5.58125 4.1175L4.15 4.29688L4.09875 4.53438L4.38 4.58625C4.56375 4.63 4.6 4.69625 4.56 4.87937L4.09875 7.04688C3.9775 7.6075 4.16438 7.87125 4.60375 7.87125C4.94438 7.87125 5.34 7.71375 5.51938 7.4975L5.57437 7.2375C5.44937 7.3475 5.26687 7.39125 5.14563 7.39125C4.97375 7.39125 4.91125 7.27063 4.95563 7.05813L5.58125 4.1175ZM5 3.4375C5.16576 3.4375 5.32473 3.37165 5.44194 3.25444C5.55915 3.13723 5.625 2.97826 5.625 2.8125C5.625 2.64674 5.55915 2.48777 5.44194 2.37056C5.32473 2.25335 5.16576 2.1875 5 2.1875C4.83424 2.1875 4.67527 2.25335 4.55806 2.37056C4.44085 2.48777 4.375 2.64674 4.375 2.8125C4.375 2.97826 4.44085 3.13723 4.55806 3.25444C4.67527 3.37165 4.83424 3.4375 5 3.4375Z" fill="black"/>
</g>
<defs>
<clipPath id="clip0_1_3961">
<rect width="10" height="10" fill="white"/>
</clipPath>
</defs>
</svg>
