<svg width="33" height="33" viewBox="0 0 33 33" fill="none" xmlns="http://www.w3.org/2000/svg">
<g clip-path="url(#clip0_1_4207)">
<path d="M22.0176 12.436C22.0176 14.0273 21.3854 15.5535 20.2602 16.6787C19.135 17.8039 17.6089 18.436 16.0176 18.436C14.4263 18.436 12.9002 17.8039 11.7749 16.6787C10.6497 15.5535 10.0176 14.0273 10.0176 12.436C10.0176 10.8447 10.6497 9.31861 11.7749 8.19339C12.9002 7.06818 14.4263 6.43604 16.0176 6.43604C17.6089 6.43604 19.135 7.06818 20.2602 8.19339C21.3854 9.31861 22.0176 10.8447 22.0176 12.436Z" fill="#00AB8A"/>
<path fill-rule="evenodd" clip-rule="evenodd" d="M0.0175781 16.436C0.0175781 12.1926 1.70329 8.12291 4.70387 5.12233C7.70445 2.12174 11.7741 0.436035 16.0176 0.436035C20.261 0.436035 24.3307 2.12174 27.3313 5.12233C30.3319 8.12291 32.0176 12.1926 32.0176 16.436C32.0176 20.6795 30.3319 24.7492 27.3313 27.7497C24.3307 30.7503 20.261 32.436 16.0176 32.436C11.7741 32.436 7.70445 30.7503 4.70387 27.7497C1.70329 24.7492 0.0175781 20.6795 0.0175781 16.436ZM16.0176 2.43604C13.3811 2.43618 10.7983 3.18076 8.56638 4.58409C6.33446 5.98742 4.54414 7.99246 3.40151 10.3684C2.25887 12.7444 1.81035 15.3947 2.10757 18.0143C2.4048 20.634 3.43568 23.1165 5.08158 25.176C6.50158 22.888 9.62758 20.436 16.0176 20.436C22.4076 20.436 25.5316 22.886 26.9536 25.176C28.5995 23.1165 29.6304 20.634 29.9276 18.0143C30.2248 15.3947 29.7763 12.7444 28.6336 10.3684C27.491 7.99246 25.7007 5.98742 23.4688 4.58409C21.2368 3.18076 18.654 2.43618 16.0176 2.43604Z" fill="#00AB8A"/>
</g>
<defs>
<clipPath id="clip0_1_4207">
<rect width="32" height="32" fill="white" transform="translate(0.0175781 0.436035)"/>
</clipPath>
</defs>
</svg>
