<svg width="25" height="24" viewBox="0 0 25 24" fill="none" xmlns="http://www.w3.org/2000/svg">
<g clip-path="url(#clip0_1_3049)">
<path d="M18.5037 15.516C19.9653 13.534 20.6199 11.0767 20.3366 8.63572C20.0533 6.19471 18.853 3.95001 16.9758 2.35069C15.0986 0.75138 12.6829 -0.0845965 10.2121 0.0100132C7.74131 0.104623 5.39756 1.12284 3.64976 2.86096C1.90196 4.59908 0.879015 6.92891 0.785578 9.38435C0.692141 11.8398 1.5351 14.2397 3.14582 16.1041C4.75653 17.9684 7.01621 19.1596 9.47278 19.4394C11.9293 19.7192 14.4016 19.0669 16.395 17.613H16.3935C16.4378 17.673 16.4871 17.7305 16.5414 17.7855L22.3527 23.5605C22.6358 23.842 23.0197 24.0002 23.4201 24.0003C23.8205 24.0004 24.2046 23.8425 24.4878 23.5612C24.7711 23.28 24.9303 22.8984 24.9304 22.5005C24.9306 22.1026 24.7716 21.721 24.4886 21.4395L18.6773 15.6645C18.6233 15.6102 18.5653 15.5615 18.5037 15.516ZM18.8931 9.75C18.8931 10.8334 18.6784 11.9062 18.2612 12.9071C17.844 13.9081 17.2325 14.8175 16.4616 15.5836C15.6907 16.3497 14.7755 16.9574 13.7682 17.372C12.761 17.7866 11.6815 18 10.5912 18C9.50102 18 8.42148 17.7866 7.41425 17.372C6.40701 16.9574 5.49182 16.3497 4.72092 15.5836C3.95002 14.8175 3.33851 13.9081 2.9213 12.9071C2.50409 11.9062 2.28935 10.8334 2.28935 9.75C2.28935 7.56196 3.16401 5.46354 4.72092 3.91637C6.27783 2.36919 8.38944 1.5 10.5912 1.5C12.793 1.5 14.9047 2.36919 16.4616 3.91637C18.0185 5.46354 18.8931 7.56196 18.8931 9.75Z" fill="#BF00ED"/>
</g>
<defs>
<clipPath id="clip0_1_3049">
<rect width="24.1509" height="24" fill="white" transform="translate(0.779907)"/>
</clipPath>
</defs>
</svg>
