<svg width="118" height="118" viewBox="0 0 118 118" fill="none" xmlns="http://www.w3.org/2000/svg">
<g clip-path="url(#clip0_1_3837)">
<g filter="url(#filter0_d_1_3837)">
<path d="M26.629 113.892C23.7822 115.352 20.552 112.793 21.1272 109.526L27.2485 74.6425L1.26637 49.892C-1.16 47.5762 0.101121 43.343 3.3535 42.8857L39.4762 37.7527L55.5833 5.84109C57.0361 2.96484 60.967 2.96484 62.4199 5.84109L78.5269 37.7527L114.65 42.8857C117.902 43.343 119.163 47.5762 116.737 49.892L90.7546 74.6425L96.8759 109.526C97.4511 112.793 94.2209 115.352 91.3741 113.892L58.9905 97.2542L26.6216 113.892H26.629Z" fill="#00DAB0" fill-opacity="0.5" shape-rendering="crispEdges"/>
</g>
</g>
<defs>
<filter id="filter0_d_1_3837" x="0.000427246" y="3.6839" width="133.002" height="125.629" filterUnits="userSpaceOnUse" color-interpolation-filters="sRGB">
<feFlood flood-opacity="0" result="BackgroundImageFix"/>
<feColorMatrix in="SourceAlpha" type="matrix" values="0 0 0 0 0 0 0 0 0 0 0 0 0 0 0 0 0 0 127 0" result="hardAlpha"/>
<feOffset dx="10" dy="10"/>
<feGaussianBlur stdDeviation="2.5"/>
<feComposite in2="hardAlpha" operator="out"/>
<feColorMatrix type="matrix" values="0 0 0 0 0 0 0 0 0 0 0 0 0 0 0 0 0 0 0.25 0"/>
<feBlend mode="normal" in2="BackgroundImageFix" result="effect1_dropShadow_1_3837"/>
<feBlend mode="normal" in="SourceGraphic" in2="effect1_dropShadow_1_3837" result="shape"/>
</filter>
<clipPath id="clip0_1_3837">
<rect width="118" height="118" fill="white"/>
</clipPath>
</defs>
</svg>
