<svg width="25" height="24" viewBox="0 0 25 24" fill="none" xmlns="http://www.w3.org/2000/svg">
<path fill-rule="evenodd" clip-rule="evenodd" d="M8.56567 6.02551C6.71318 7.28662 5.5 9.4115 5.5 11.8166C5.5 15.6826 8.63401 18.8166 12.5 18.8166C14.9051 18.8166 17.0299 17.6034 18.2911 15.7509C13.1817 15.1924 9.12421 11.1348 8.56567 6.02551ZM19.5 13.8166C20.366 13.8166 21.1118 14.5798 20.7691 15.3752C19.3898 18.5759 16.2066 20.8166 12.5 20.8166C7.52944 20.8166 3.5 16.7871 3.5 11.8166C3.5 8.11 5.74067 4.92676 8.9414 3.54749C9.73674 3.20475 10.5 3.95054 10.5 4.81658C10.5 9.78715 14.5294 13.8166 19.5 13.8166Z" fill="#535763"/>
</svg>
