<svg width="24" height="24" viewBox="0 0 24 24" fill="none" xmlns="http://www.w3.org/2000/svg">
<path fill-rule="evenodd" clip-rule="evenodd" d="M6.97028 6.96888C7.03995 6.89903 7.12271 6.84362 7.21383 6.80581C7.30495 6.768 7.40263 6.74854 7.50128 6.74854C7.59993 6.74854 7.69761 6.768 7.78873 6.80581C7.87985 6.84362 7.96261 6.89903 8.03228 6.96888L12.0013 10.9394L15.9703 6.96888C16.04 6.89914 16.1228 6.84383 16.2139 6.80609C16.305 6.76835 16.4027 6.74893 16.5013 6.74893C16.5999 6.74893 16.6975 6.76835 16.7887 6.80609C16.8798 6.84383 16.9625 6.89914 17.0323 6.96888C17.102 7.03861 17.1573 7.12139 17.1951 7.2125C17.2328 7.30361 17.2522 7.40126 17.2522 7.49988C17.2522 7.59849 17.2328 7.69614 17.1951 7.78725C17.1573 7.87836 17.102 7.96114 17.0323 8.03088L13.0618 11.9999L17.0323 15.9689C17.102 16.0386 17.1573 16.1214 17.1951 16.2125C17.2328 16.3036 17.2522 16.4013 17.2522 16.4999C17.2522 16.5985 17.2328 16.6961 17.1951 16.7873C17.1573 16.8784 17.102 16.9611 17.0323 17.0309C16.9625 17.1006 16.8798 17.1559 16.7887 17.1937C16.6975 17.2314 16.5999 17.2508 16.5013 17.2508C16.4027 17.2508 16.305 17.2314 16.2139 17.1937C16.1228 17.1559 16.04 17.1006 15.9703 17.0309L12.0013 13.0604L8.03228 17.0309C7.96255 17.1006 7.87976 17.1559 7.78865 17.1937C7.69755 17.2314 7.5999 17.2508 7.50128 17.2508C7.40266 17.2508 7.30501 17.2314 7.2139 17.1937C7.12279 17.1559 7.04001 17.1006 6.97028 17.0309C6.90055 16.9611 6.84523 16.8784 6.80749 16.7873C6.76976 16.6961 6.75033 16.5985 6.75033 16.4999C6.75033 16.4013 6.76976 16.3036 6.80749 16.2125C6.84523 16.1214 6.90055 16.0386 6.97028 15.9689L10.9408 11.9999L6.97028 8.03088C6.90043 7.96121 6.84502 7.87844 6.80721 7.78733C6.7694 7.69621 6.74994 7.59853 6.74994 7.49988C6.74994 7.40122 6.7694 7.30354 6.80721 7.21242C6.84502 7.12131 6.90043 7.03854 6.97028 6.96888Z" fill="white"/>
</svg>
