<svg width="26" height="25" fill="none" xmlns="http://www.w3.org/2000/svg"><path d="M17.851 8.66a2.157 2.157 0 0 0-1.237-1.236 3.602 3.602 0 0 0-1.208-.223c-.686-.032-.892-.04-2.63-.04-1.739 0-1.944.008-2.63.04-.414.004-.823.08-1.21.223A2.156 2.156 0 0 0 7.7 8.661c-.143.387-.219.796-.224 1.209-.031.686-.039.892-.039 2.63s.008 1.944.04 2.63a3.6 3.6 0 0 0 .223 1.21 2.155 2.155 0 0 0 1.237 1.236c.387.143.796.219 1.208.223.687.032.892.038 2.63.038 1.739 0 1.945-.006 2.63-.039.414-.004.823-.08 1.21-.222a2.157 2.157 0 0 0 1.236-1.238c.143-.386.22-.795.224-1.208.031-.686.038-.892.038-2.63s-.007-1.944-.04-2.63a3.605 3.605 0 0 0-.222-1.21Zm-5.075 7.184a3.344 3.344 0 1 1 0-6.688 3.344 3.344 0 0 1 0 6.688Zm3.475-6.038a.781.781 0 1 1 0-1.562.781.781 0 0 1 0 1.562ZM14.946 12.5a2.17 2.17 0 1 1-4.34 0 2.17 2.17 0 0 1 4.34 0ZM12.776 0a12.5 12.5 0 1 0 0 25 12.5 12.5 0 0 0 0-25Zm6.47 15.184a4.777 4.777 0 0 1-.302 1.58 3.328 3.328 0 0 1-1.904 1.904c-.506.19-1.04.292-1.58.303-.695.032-.916.04-2.684.04-1.769 0-1.99-.008-2.685-.04a4.778 4.778 0 0 1-1.58-.303 3.33 3.33 0 0 1-1.903-1.904 4.778 4.778 0 0 1-.304-1.58c-.031-.694-.039-.916-.039-2.684 0-1.768.008-1.99.04-2.685.01-.54.112-1.074.301-1.58a3.328 3.328 0 0 1 1.905-1.904 4.779 4.779 0 0 1 1.58-.302c.695-.032.916-.04 2.685-.04 1.768 0 1.99.008 2.684.04.54.01 1.074.113 1.58.302a3.328 3.328 0 0 1 1.904 1.905c.19.505.292 1.04.303 1.58.031.694.039.916.039 2.684 0 1.768-.008 1.988-.04 2.684Z" fill="#FFEFAD"/></svg>