<svg width="32" height="25" fill="none" xmlns="http://www.w3.org/2000/svg"><path d="M27.893 6.23c.02.274.02.547.02.82 0 8.34-6.348 17.95-17.95 17.95a17.827 17.827 0 0 1-9.687-2.832c.507.059.996.078 1.523.078 2.95 0 5.664-.996 7.832-2.695a6.32 6.32 0 0 1-5.898-4.375c.39.058.78.097 1.191.097a6.67 6.67 0 0 0 1.66-.214 6.31 6.31 0 0 1-5.058-6.192V8.79c.84.469 1.816.762 2.851.8a6.304 6.304 0 0 1-2.812-5.253c0-1.172.312-2.246.859-3.184a17.932 17.932 0 0 0 13.008 6.602 7.117 7.117 0 0 1-.157-1.445A6.306 6.306 0 0 1 21.585 0c1.816 0 3.456.762 4.608 1.992 1.426-.273 2.793-.8 4.004-1.523a6.291 6.291 0 0 1-2.773 3.476c1.27-.136 2.5-.488 3.633-.976a13.561 13.561 0 0 1-3.164 3.261Z" fill="#FFEFAD"/></svg>