<svg width="22" height="25" fill="none" xmlns="http://www.w3.org/2000/svg"><path d="M19.026 5.347a5.683 5.683 0 0 1-.492-.287 6.917 6.917 0 0 1-1.264-1.074c-.943-1.078-1.295-2.173-1.424-2.939h.005C15.742.411 15.787 0 15.794 0h-4.293v16.602c0 .223 0 .444-.01.661 0 .027-.002.052-.004.081 0 .012 0 .025-.003.037v.01a3.646 3.646 0 0 1-1.834 2.893 3.583 3.583 0 0 1-1.776.47c-2 0-3.622-1.632-3.622-3.646 0-2.015 1.621-3.646 3.622-3.646.378 0 .755.06 1.115.176l.005-4.371a7.976 7.976 0 0 0-6.146 1.798 8.424 8.424 0 0 0-1.838 2.267c-.181.312-.865 1.568-.948 3.606-.052 1.156.295 2.355.46 2.85v.01c.105.292.509 1.287 1.166 2.126a8.724 8.724 0 0 0 1.86 1.755v-.01l.01.01c2.08 1.413 4.384 1.32 4.384 1.32.399-.016 1.735 0 3.253-.72 1.683-.797 2.641-1.985 2.641-1.985a8.251 8.251 0 0 0 1.44-2.392c.388-1.021.518-2.246.518-2.736V8.358c.052.032.746.49.746.49s1 .641 2.559 1.058c1.118.297 2.625.36 2.625.36V6.003c-.528.058-1.6-.109-2.698-.656Z" fill="#FFEFAD"/></svg>