<svg width="26" height="25" fill="none" xmlns="http://www.w3.org/2000/svg"><path d="M25.724 17.738c0 4.55-2.712 7.262-7.262 7.262h-1.488c-.687 0-1.25-.563-1.25-1.25v-7.212c0-.338.275-.626.613-.626l2.2-.037a.399.399 0 0 0 .362-.313l.438-2.387a.378.378 0 0 0-.375-.438l-2.663.038a.635.635 0 0 1-.637-.613l-.05-3.062c0-.2.162-.375.375-.375l3-.05a.368.368 0 0 0 .375-.375l-.05-3a.368.368 0 0 0-.375-.375l-3.375.05a3.745 3.745 0 0 0-3.688 3.813l.063 3.437a.619.619 0 0 1-.613.638l-1.5.024a.368.368 0 0 0-.375.375l.038 2.375c0 .213.162.375.375.375l1.5-.024c.35 0 .625.274.637.612l.113 7.125c.012.7-.55 1.275-1.25 1.275H7.987c-4.55 0-7.263-2.712-7.263-7.275V7.262C.724 2.712 3.437 0 7.987 0h10.475c4.55 0 7.262 2.712 7.262 7.263v10.475Z" fill="#FFEFAD"/></svg>