<svg width="40" height="40" fill="none" xmlns="http://www.w3.org/2000/svg"><g clip-path="url('#clip0_1_4068')"><circle cx="20" cy="20" r="20" fill="#fff"/><path d="m25.646 27.288-.395.918a2.25 2.25 0 0 1-.723-.497L16 19.182v4.506a2.25 2.25 0 0 1-4.5 0V13.75c0-.597.237-1.169.659-1.591l.707.707-.707-.707a2.25 2.25 0 0 1 1.591-.659h9.938a2.25 2.25 0 0 1 0 4.5h-4.506l8.527 8.528c.212.206.38.452.497.723l-.918.395.918-.395a2.248 2.248 0 0 1 .016 1.74l-.926-.379.926.38c-.114.276-.28.527-.492.738l-2.084-.442Zm0 0-.395.918a2.248 2.248 0 0 0 1.74.016l-.379-.926.38.926c.276-.114.527-.28.738-.492l-2.084-.442ZM39 20a19 19 0 1 1-38 0 19 19 0 0 1 38 0Z" fill="#FBCB00" stroke="#000" stroke-width="2"/></g><defs><clipPath id="clip0_1_4068"><path fill="#fff" d="M0 0h40v40H0z"/></clipPath></defs></svg>