<svg width="40" height="40" fill="none" xmlns="http://www.w3.org/2000/svg"><g clip-path="url('#clip0_1_4251')"><path d="M6 38.75V5a4 4 0 0 1 4-4h20a4 4 0 0 1 4 4v33.75a.25.25 0 0 1-.033.124l.87.495-.87-.494a.25.25 0 0 1-.09.09l.51.861-.51-.86a.25.25 0 0 1-.247.004h-.001l-13.15-7.175-.479-.262-.479.262-13.15 7.175H6.37a.25.25 0 0 1-.248-.004l-.509.858.51-.858A.25.25 0 0 1 6 38.75Z" fill="#fff" fill-opacity=".47" stroke="#000" stroke-width="2"/></g><defs><clipPath id="clip0_1_4251"><path fill="#fff" d="M0 0h40v40H0z"/></clipPath></defs></svg>