<svg width="16" height="16" fill="none" xmlns="http://www.w3.org/2000/svg"><g clip-path="url('#clip0_1_3216')" fill="#333"><path d="M14.333 2.667H12.89v.889h1.333v9.777H1.778V3.556H3.11v-.89H1.667a.791.791 0 0 0-.778.805v9.947a.79.79 0 0 0 .778.804h12.666a.79.79 0 0 0 .778-.804V3.47a.791.791 0 0 0-.778-.804Z"/><path d="M3.556 6.222h.888v.89h-.888v-.89ZM6.222 6.222h.89v.89h-.89v-.89ZM8.889 6.222h.889v.89h-.89v-.89ZM11.556 6.222h.888v.89h-.889v-.89ZM3.556 8.444h.888v.89h-.888v-.89ZM6.222 8.444h.89v.89h-.89v-.89ZM8.889 8.444h.889v.89h-.89v-.89ZM11.556 8.444h.888v.89h-.889v-.89ZM3.556 10.667h.888v.889h-.888v-.89ZM6.222 10.667h.89v.889h-.89v-.89ZM8.889 10.667h.889v.889h-.89v-.89ZM11.556 10.667h.888v.889h-.889v-.89ZM4.444 4.444A.444.444 0 0 0 4.89 4V1.333a.444.444 0 0 0-.889 0V4a.444.444 0 0 0 .444.444ZM11.556 4.444A.444.444 0 0 0 12 4V1.333a.444.444 0 1 0-.889 0V4a.444.444 0 0 0 .445.444ZM5.778 2.667h4.444v.889H5.778v-.89Z"/></g><defs><clipPath id="clip0_1_3216"><path fill="#fff" d="M0 0h16v16H0z"/></clipPath></defs></svg>