<svg width="267" height="24" fill="none" xmlns="http://www.w3.org/2000/svg"><g clip-path="url('#clip0_1_4249')"><path d="M4.299 22.275c-.117.666.54 1.187 1.119.89l6.585-3.384 6.584 3.384c.579.297 1.236-.224 1.119-.889l-1.245-7.095 5.283-5.033c.494-.471.24-1.332-.424-1.425l-7.347-1.044-3.276-6.491a.77.77 0 0 0-1.39 0L8.031 7.68.684 8.724c-.661.093-.918.954-.424 1.425l5.284 5.034-1.245 7.095v-.003Zm7.357-4.15-5.529 2.84L7.17 15.03a.84.84 0 0 0-.245-.757l-4.359-4.155 6.078-.864a.795.795 0 0 0 .59-.432L12 3.335l2.77 5.487a.794.794 0 0 0 .59.432l6.078.862-4.359 4.155a.842.842 0 0 0-.245.759l1.041 5.935-5.528-2.84a.75.75 0 0 0-.69 0Z" fill="#D9D9D9"/></g><g clip-path="url('#clip1_1_4249')"><path d="M31.299 22.275c-.117.666.54 1.187 1.119.89l6.585-3.384 6.584 3.384c.578.297 1.235-.224 1.118-.889l-1.244-7.095 5.282-5.033c.495-.471.24-1.332-.422-1.425l-7.347-1.044-3.276-6.491a.77.77 0 0 0-1.391 0L35.031 7.68l-7.347 1.044c-.662.093-.918.954-.425 1.425l5.285 5.034-1.245 7.095v-.003Zm7.358-4.15-5.53 2.84 1.041-5.935a.84.84 0 0 0-.244-.757l-4.359-4.155 6.078-.864a.794.794 0 0 0 .59-.432L39 3.335l2.77 5.487a.794.794 0 0 0 .59.432l6.078.862-4.359 4.155a.842.842 0 0 0-.245.759l1.041 5.935-5.529-2.84a.75.75 0 0 0-.69 0Z" fill="#D9D9D9"/></g><g clip-path="url('#clip2_1_4249')"><path d="M220.299 22.275c-.117.666.54 1.187 1.119.89l6.585-3.384 6.584 3.384c.579.297 1.236-.224 1.119-.889l-1.245-7.095 5.283-5.033c.495-.471.24-1.332-.423-1.425l-7.347-1.044-3.276-6.491a.774.774 0 0 0-.696-.44.77.77 0 0 0-.695.44l-3.276 6.492-7.347 1.044c-.661.093-.918.954-.424 1.425l5.284 5.034-1.245 7.095v-.003Zm7.358-4.15-5.529 2.84 1.041-5.935a.849.849 0 0 0-.245-.757l-4.359-4.155 6.078-.864a.79.79 0 0 0 .59-.432L228 3.335l2.771 5.487a.785.785 0 0 0 .589.432l6.078.862-4.359 4.155a.848.848 0 0 0-.244.759l1.041 5.935-5.529-2.84a.752.752 0 0 0-.69 0Z" fill="#D9D9D9"/></g><g clip-path="url('#clip3_1_4249')"><path d="M247.299 22.275c-.117.666.54 1.187 1.119.89l6.585-3.384 6.583 3.384c.579.297 1.236-.224 1.119-.889l-1.245-7.095 5.283-5.033c.495-.471.24-1.332-.423-1.425l-7.347-1.044-3.276-6.491a.765.765 0 0 0-.695-.44.77.77 0 0 0-.695.44l-3.276 6.492-7.347 1.044c-.662.093-.918.954-.425 1.425l5.285 5.034-1.245 7.095v-.003Zm7.357-4.15-5.529 2.84 1.041-5.935a.836.836 0 0 0-.244-.757l-4.359-4.155 6.078-.864a.79.79 0 0 0 .589-.432L255 3.335l2.77 5.487a.798.798 0 0 0 .59.432l6.078.862-4.359 4.155a.848.848 0 0 0-.245.759l1.041 5.935-5.529-2.84a.745.745 0 0 0-.69 0Z" fill="#D9D9D9"/></g><g clip-path="url('#clip4_1_4249')"><path d="M58.299 22.275c-.117.666.54 1.187 1.119.89l6.585-3.384 6.584 3.384c.578.297 1.236-.224 1.118-.889l-1.245-7.095 5.284-5.033c.495-.471.24-1.332-.424-1.425l-7.346-1.044-3.276-6.491a.77.77 0 0 0-1.391 0L62.031 7.68l-7.347 1.044c-.661.093-.918.954-.424 1.425l5.284 5.034-1.245 7.095v-.003Zm7.357-4.15-5.529 2.84 1.041-5.935a.84.84 0 0 0-.244-.757l-4.359-4.155 6.078-.864a.795.795 0 0 0 .59-.432L66 3.335l2.77 5.487a.794.794 0 0 0 .59.432l6.078.862-4.359 4.155a.84.84 0 0 0-.244.759l1.04 5.935-5.528-2.84a.75.75 0 0 0-.69 0Z" fill="#D9D9D9"/></g><g clip-path="url('#clip5_1_4249')"><path d="M85.299 22.275c-.117.666.54 1.187 1.119.89l6.585-3.384 6.584 3.384c.579.297 1.236-.224 1.118-.889l-1.245-7.095 5.284-5.033c.495-.471.239-1.332-.424-1.425l-7.346-1.044-3.276-6.491a.77.77 0 0 0-1.391 0L89.031 7.68l-7.347 1.044c-.662.093-.918.954-.424 1.425l5.284 5.034-1.245 7.095v-.003Zm7.357-4.15-5.529 2.84 1.041-5.935a.84.84 0 0 0-.244-.757l-4.359-4.155 6.078-.864a.795.795 0 0 0 .59-.432L93 3.335l2.77 5.487a.794.794 0 0 0 .59.432l6.078.862-4.359 4.155a.842.842 0 0 0-.244.759l1.04 5.935-5.528-2.84a.75.75 0 0 0-.69 0Z" fill="#D9D9D9"/></g><g clip-path="url('#clip6_1_4249')"><path d="M112.299 22.275c-.117.666.54 1.187 1.119.89l6.585-3.384 6.584 3.384c.579.297 1.236-.224 1.118-.889l-1.244-7.095 5.283-5.033c.495-.471.239-1.332-.424-1.425l-7.346-1.044-3.276-6.491a.774.774 0 0 0-.696-.44.77.77 0 0 0-.695.44l-3.276 6.492-7.347 1.044c-.661.093-.918.954-.424 1.425l5.284 5.034-1.245 7.095v-.003Zm7.357-4.15-5.528 2.84 1.04-5.935a.836.836 0 0 0-.244-.757l-4.359-4.155 6.078-.864a.79.79 0 0 0 .59-.432L120 3.335l2.771 5.487a.785.785 0 0 0 .589.432l6.078.862-4.359 4.155a.848.848 0 0 0-.245.759l1.041 5.935-5.528-2.84a.752.752 0 0 0-.691 0Z" fill="#D9D9D9"/></g><g clip-path="url('#clip7_1_4249')"><path d="M139.299 22.275c-.117.666.54 1.187 1.119.89l6.585-3.384 6.583 3.384c.579.297 1.236-.224 1.119-.889l-1.245-7.095 5.283-5.033c.495-.471.24-1.332-.423-1.425l-7.347-1.044-3.276-6.491a.765.765 0 0 0-.695-.44.77.77 0 0 0-.695.44l-3.276 6.492-7.347 1.044c-.662.093-.918.954-.425 1.425l5.285 5.034-1.245 7.095v-.003Zm7.357-4.15-5.529 2.84 1.041-5.935a.836.836 0 0 0-.244-.757l-4.359-4.155 6.078-.864a.79.79 0 0 0 .589-.432L147 3.335l2.77 5.487a.798.798 0 0 0 .59.432l6.078.862-4.359 4.155a.848.848 0 0 0-.245.759l1.041 5.935-5.529-2.84a.745.745 0 0 0-.69 0Z" fill="#D9D9D9"/></g><g clip-path="url('#clip8_1_4249')"><path d="M166.299 22.275c-.117.666.54 1.187 1.119.89l6.585-3.384 6.584 3.384c.579.297 1.236-.224 1.119-.889l-1.245-7.095 5.283-5.033c.495-.471.24-1.332-.423-1.425l-7.347-1.044-3.276-6.491a.774.774 0 0 0-.696-.44.77.77 0 0 0-.695.44l-3.276 6.492-7.347 1.044c-.661.093-.918.954-.424 1.425l5.284 5.034-1.245 7.095v-.003Zm7.358-4.15-5.529 2.84 1.041-5.935a.849.849 0 0 0-.245-.757l-4.359-4.155 6.078-.864a.79.79 0 0 0 .59-.432L174 3.335l2.771 5.487a.785.785 0 0 0 .589.432l6.078.862-4.359 4.155a.848.848 0 0 0-.244.759l1.041 5.935-5.529-2.84a.752.752 0 0 0-.69 0Z" fill="#D9D9D9"/></g><g clip-path="url('#clip9_1_4249')"><path d="M193.299 22.275c-.117.666.54 1.187 1.119.89l6.585-3.384 6.584 3.384c.579.297 1.236-.224 1.119-.889l-1.245-7.095 5.283-5.033c.495-.471.24-1.332-.423-1.425l-7.347-1.044-3.276-6.491a.774.774 0 0 0-.696-.44.77.77 0 0 0-.695.44l-3.276 6.492-7.347 1.044c-.661.093-.918.954-.424 1.425l5.284 5.034-1.245 7.095v-.003Zm7.358-4.15-5.529 2.84 1.041-5.935a.849.849 0 0 0-.245-.757l-4.359-4.155 6.078-.864a.79.79 0 0 0 .59-.432L201 3.335l2.771 5.487a.785.785 0 0 0 .589.432l6.078.862-4.359 4.155a.848.848 0 0 0-.244.759l1.041 5.935-5.529-2.84a.752.752 0 0 0-.69 0Z" fill="#D9D9D9"/></g><defs><clipPath id="clip0_1_4249"><path fill="#fff" d="M0 0h24v24H0z"/></clipPath><clipPath id="clip1_1_4249"><path fill="#fff" transform="translate(27)" d="M0 0h24v24H0z"/></clipPath><clipPath id="clip2_1_4249"><path fill="#fff" transform="translate(216)" d="M0 0h24v24H0z"/></clipPath><clipPath id="clip3_1_4249"><path fill="#fff" transform="translate(243)" d="M0 0h24v24H0z"/></clipPath><clipPath id="clip4_1_4249"><path fill="#fff" transform="translate(54)" d="M0 0h24v24H0z"/></clipPath><clipPath id="clip5_1_4249"><path fill="#fff" transform="translate(81)" d="M0 0h24v24H0z"/></clipPath><clipPath id="clip6_1_4249"><path fill="#fff" transform="translate(108)" d="M0 0h24v24H0z"/></clipPath><clipPath id="clip7_1_4249"><path fill="#fff" transform="translate(135)" d="M0 0h24v24H0z"/></clipPath><clipPath id="clip8_1_4249"><path fill="#fff" transform="translate(162)" d="M0 0h24v24H0z"/></clipPath><clipPath id="clip9_1_4249"><path fill="#fff" transform="translate(189)" d="M0 0h24v24H0z"/></clipPath></defs></svg>