<svg width="9" height="9" fill="none" xmlns="http://www.w3.org/2000/svg"><path d="M4.117 2.975c.533.025.67.48.679.692h.746c-.034-.825-.621-1.33-1.438-1.33-.92 0-1.604.58-1.604 1.888 0 .808.388 1.767 1.6 1.767.925 0 1.42-.688 1.433-1.23h-.746c-.012.246-.187.576-.679.6-.545-.016-.775-.441-.775-1.137 0-1.204.534-1.242.784-1.25ZM4.167 0A4.168 4.168 0 0 0 0 4.167c0 2.3 1.867 4.166 4.167 4.166s4.166-1.866 4.166-4.166C8.333 1.867 6.467 0 4.167 0Zm0 7.5A3.338 3.338 0 0 1 .833 4.167 3.338 3.338 0 0 1 4.167.833 3.338 3.338 0 0 1 7.5 4.167 3.338 3.338 0 0 1 4.167 7.5Z" fill="#000"/></svg>