<svg width="10" height="10" fill="none" xmlns="http://www.w3.org/2000/svg"><g clip-path="url('#clip0_1_3961')"><path fill-rule="evenodd" clip-rule="evenodd" d="M5 10A5 5 0 1 0 5 0a5 5 0 0 0 0 10Zm.581-5.883-1.431.18-.051.237.281.052c.184.044.22.11.18.293l-.461 2.168c-.122.56.065.824.505.824.34 0 .736-.157.915-.374l.055-.26a.692.692 0 0 1-.428.154c-.172 0-.235-.12-.19-.333l.625-2.94ZM5 3.437a.625.625 0 1 0 0-1.25.625.625 0 0 0 0 1.25Z" fill="#000"/></g><defs><clipPath id="clip0_1_3961"><path fill="#fff" d="M0 0h10v10H0z"/></clipPath></defs></svg>