<svg width="33" height="33" fill="none" xmlns="http://www.w3.org/2000/svg"><g clip-path="url('#clip0_1_4207')" fill="#00AB8A"><path d="M22.018 12.436a6 6 0 1 1-12 0 6 6 0 0 1 12 0Z"/><path fill-rule="evenodd" clip-rule="evenodd" d="M.018 16.436a16 16 0 1 1 32 0 16 16 0 0 1-32 0Zm16-14a14 14 0 0 0-10.936 22.74c1.42-2.288 4.546-4.74 10.936-4.74s9.514 2.45 10.936 4.74a14 14 0 0 0-10.936-22.74Z"/></g><defs><clipPath id="clip0_1_4207"><path fill="#fff" transform="translate(.018 .436)" d="M0 0h32v32H0z"/></clipPath></defs></svg>