<svg width="24" height="24" fill="none" xmlns="http://www.w3.org/2000/svg"><g clip-path="url('#clip0_15_271')" fill-rule="evenodd" clip-rule="evenodd" fill="#979797"><path d="M15.661 15.663a1.501 1.501 0 0 1 2.123 0l5.775 5.775a1.5 1.5 0 0 1-2.121 2.123l-5.775-5.775a1.5 1.5 0 0 1 0-2.123h-.002Z"/><path d="M9.75 18a8.25 8.25 0 1 0 0-16.5 8.25 8.25 0 0 0 0 16.5Zm9.75-8.25a9.75 9.75 0 1 1-19.5 0 9.75 9.75 0 0 1 19.5 0Z"/></g><defs><clipPath id="clip0_15_271"><path fill="#fff" d="M0 0h24v24H0z"/></clipPath></defs></svg>