<svg width="25" height="24" fill="none" xmlns="http://www.w3.org/2000/svg"><g clip-path="url('#clip0_1_3049')"><path d="M18.504 15.516a9.705 9.705 0 0 0-1.528-13.165A9.85 9.85 0 0 0 10.212.01 9.84 9.84 0 0 0 3.65 2.861 9.721 9.721 0 0 0 .786 9.384a9.712 9.712 0 0 0 2.36 6.72 9.857 9.857 0 0 0 13.25 1.509h-.003c.045.06.094.117.148.172l5.812 5.776a1.514 1.514 0 0 0 2.135 0 1.495 1.495 0 0 0 0-2.122l-5.81-5.774a1.498 1.498 0 0 0-.174-.149Zm.39-5.766a8.205 8.205 0 0 1-.633 3.157 8.246 8.246 0 0 1-1.8 2.677 8.305 8.305 0 0 1-2.693 1.788 8.347 8.347 0 0 1-9.047-1.788 8.246 8.246 0 0 1-1.8-2.677 8.205 8.205 0 0 1 1.8-8.99A8.328 8.328 0 0 1 10.59 1.5c2.202 0 4.314.87 5.87 2.416a8.224 8.224 0 0 1 2.432 5.834Z" fill="#BF00ED"/></g><defs><clipPath id="clip0_1_3049"><path fill="#fff" transform="translate(.78)" d="M0 0h24.151v24H0z"/></clipPath></defs></svg>