<svg width="32" height="33" fill="none" xmlns="http://www.w3.org/2000/svg"><g clip-path="url('#clip0_1_4205')"><path d="M7.216 31.788c-.772.396-1.648-.298-1.492-1.184l1.66-9.46-7.046-6.712c-.658-.628-.316-1.776.566-1.9L10.7 11.14l4.368-8.654c.394-.78 1.46-.78 1.854 0l4.368 8.654 9.796 1.392c.882.124 1.224 1.272.564 1.9l-7.044 6.712 1.66 9.46c.156.886-.72 1.58-1.492 1.184l-8.782-4.512-8.776 4.512Z" fill="#FBCB00"/></g><defs><clipPath id="clip0_1_4205"><path fill="#fff" transform="translate(-.008 .902)" d="M0 0h32v32H0z"/></clipPath></defs></svg>