<svg width="118" height="118" fill="none" xmlns="http://www.w3.org/2000/svg"><g filter="url('#filter0_d_1_3837')" clip-path="url('#clip0_1_3837')"><path d="M26.629 113.892c-2.847 1.46-6.077-1.099-5.502-4.366l6.122-34.883L1.265 49.891c-2.426-2.316-1.165-6.549 2.087-7.006l36.123-5.133L55.583 5.84c1.453-2.876 5.384-2.876 6.837 0l16.107 31.912 36.123 5.133c3.252.457 4.513 4.69 2.087 7.006l-25.982 24.75 6.12 34.884c.576 3.267-2.654 5.826-5.5 4.366L58.99 97.254l-32.368 16.638h.007Z" fill="#00DAB0" fill-opacity=".5" shape-rendering="crispEdges"/></g><defs><clipPath id="clip0_1_3837"><path fill="#fff" d="M0 0h118v118H0z"/></clipPath><filter id="filter0_d_1_3837" x="0" y="3.684" width="133.002" height="125.629" filterUnits="userSpaceOnUse" color-interpolation-filters="sRGB"><feFlood flood-opacity="0" result="BackgroundImageFix"/><feColorMatrix in="SourceAlpha" values="0 0 0 0 0 0 0 0 0 0 0 0 0 0 0 0 0 0 127 0" result="hardAlpha"/><feOffset dx="10" dy="10"/><feGaussianBlur stdDeviation="2.5"/><feComposite in2="hardAlpha" operator="out"/><feColorMatrix values="0 0 0 0 0 0 0 0 0 0 0 0 0 0 0 0 0 0 0.25 0"/><feBlend in2="BackgroundImageFix" result="effect1_dropShadow_1_3837"/><feBlend in="SourceGraphic" in2="effect1_dropShadow_1_3837" result="shape"/></filter></defs></svg>