<svg width="24" height="24" fill="none" xmlns="http://www.w3.org/2000/svg"><path fill-rule="evenodd" clip-rule="evenodd" d="M12 18a6 6 0 1 0 0-12 6 6 0 0 0 0 12ZM11.995 1.5a1 1 0 0 1 1 1v1a1 1 0 1 1-2 0v-1a1 1 0 0 1 1-1ZM11.995 19.5a1 1 0 0 1 1 1v.997a1 1 0 1 1-2 0V20.5a1 1 0 0 1 1-1ZM1.497 11.998a1 1 0 0 1 1-1h1a1 1 0 1 1 0 2h-1a1 1 0 0 1-1-1ZM19.497 11.998a1 1 0 0 1 1-1h.997a1 1 0 1 1 0 2h-.997a1 1 0 0 1-1-1ZM4.572 19.422a1 1 0 0 1 0-1.414l.707-.707a1 1 0 0 1 1.414 1.414l-.707.707a1 1 0 0 1-1.414 0ZM17.3 6.694a1 1 0 0 1 0-1.414l.704-.705a1 1 0 1 1 1.415 1.414l-.705.705a1 1 0 0 1-1.414 0ZM4.572 4.575a1 1 0 0 1 1.414 0l.707.707a1 1 0 0 1-1.414 1.414l-.707-.707a1 1 0 0 1 0-1.414ZM17.3 17.303a1 1 0 0 1 1.414 0l.705.705a1 1 0 0 1-1.415 1.414l-.704-.705a1 1 0 0 1 0-1.414Z" fill="#535763"/></svg>